<?xml version="1.0" encoding="utf-8"?>
<!-- Generator: Adobe Illustrator 23.1.0, SVG Export Plug-In . SVG Version: 6.00 Build 0)  -->
<svg version="1.1" id="Layer_1" xmlns="http://www.w3.org/2000/svg" xmlns:xlink="http://www.w3.org/1999/xlink" x="0px" y="0px"
	 viewBox="0 0 132.5 29.1" style="enable-background:new 0 0 132.5 29.1;" xml:space="preserve">
<style type="text/css">
	.st0{fill:none;stroke:#00AEEF;stroke-width:3.0144;stroke-miterlimit:10;}
	.st1{fill:none;stroke:#00AEEF;stroke-width:1.2693;stroke-linecap:round;stroke-miterlimit:10;}
	.st2{fill:#00AEEF;}
	.st3{fill:#2E3192;}
</style>
<title>goclean-logo</title>
<g>
	<path class="st0" d="M43.1,19.4c0,4.5-4,8.3-8.9,8.3s-8.9-3.7-8.9-8.3c0-1.7,0.5-3.2,1.5-4.6L34.1,3l7.3,11.7
		C42.6,16.1,43.1,17.7,43.1,19.4z"/>
	<path class="st1" d="M28.9,19.4c0.2,0.9,0.7,1.7,1.5,2.4c0.8,0.7,2,1.3,3.2,1.5"/>
</g>
<path class="st2" d="M20.2,24.2c-0.9,1.3-2.2,2.3-3.7,2.9c-1.8,0.7-3.7,1-5.6,0.9c-2,0-4-0.5-5.7-1.5s-3-2.5-3.8-4.3
	c-1-2-1.4-4.2-1.4-6.4v-2.3c0-4,0.9-7,2.8-9.2S7.6,0.9,10.6,1c2.4-0.1,4.7,0.6,6.6,2.1C18.9,4.6,20,6.8,20.3,9h-3.5
	c-0.7-3.5-2.7-5.2-6.2-5.2c-2.1-0.1-4,0.8-5.3,2.4c-1.2,1.6-1.8,4-1.8,7.1v2.1c-0.1,2.5,0.6,5,2,7c1.3,1.7,3.3,2.7,5.5,2.6
	c1.1,0,2.3-0.1,3.4-0.4c0.9-0.3,1.8-0.8,2.4-1.5v-5.8h-6.1v-2.8h9.5C20.2,14.5,20.2,24.2,20.2,24.2z"/>
<path class="st3" d="M57.2,25.3c1.1,0,2.2-0.4,3.1-1.1c0.8-0.6,1.4-1.6,1.5-2.7H65c-0.1,1.1-0.5,2.3-1.2,3.2c-0.7,1-1.7,1.9-2.8,2.4
	c-1.2,0.6-2.4,0.9-3.8,0.9c-2.4,0.1-4.7-0.9-6.3-2.6c-1.7-2-2.5-4.6-2.3-7.3v-0.6c0-1.7,0.3-3.4,1-5c0.6-1.4,1.7-2.6,3-3.4
	c1.4-0.8,3-1.3,4.6-1.2c2-0.1,4,0.7,5.4,2c1.4,1.3,2.3,3.1,2.3,5.1h-3.1c-0.1-1.2-0.6-2.3-1.4-3.1c-0.8-0.8-2-1.3-3.2-1.3
	c-1.5-0.1-3,0.6-3.9,1.8c-1,1.6-1.5,3.4-1.4,5.3v0.6c-0.1,1.8,0.4,3.6,1.4,5.2C54.2,24.7,55.6,25.4,57.2,25.3z"/>
<path class="st3" d="M72.4,28h-3.3V0.4h3.3V28z"/>
<path class="st3" d="M85.7,28c-2.4,0.1-4.8-0.9-6.4-2.6c-1.7-1.9-2.6-4.4-2.5-6.9v-0.6c0-1.8,0.3-3.6,1.1-5.2
	c0.7-1.5,1.8-2.7,3.2-3.6c1.3-0.8,2.8-1.3,4.3-1.3c2.2-0.1,4.4,0.8,5.9,2.5c1.4,1.7,2.1,4,2.1,7.2v1.4H80.1c0,1.7,0.6,3.4,1.7,4.7
	c1,1.2,2.5,1.8,4.1,1.8c1,0,2.1-0.2,3-0.7c0.8-0.5,1.6-1.2,2.1-1.9l2,1.6C91.4,26.7,88.6,28.2,85.7,28z M85.3,10.5
	c-1.3,0-2.5,0.5-3.4,1.5c-1,1.2-1.6,2.6-1.7,4.1H90v-0.3c0-1.4-0.5-2.8-1.4-3.9C87.7,11,86.5,10.5,85.3,10.5z"/>
<path class="st3" d="M109.2,27.7c-0.3-0.7-0.4-1.3-0.5-2c-1.4,1.6-3.4,2.4-5.6,2.4c-1.7,0.1-3.4-0.5-4.7-1.6c-1.2-1-1.9-2.5-1.8-4.1
	c-0.1-1.9,0.8-3.6,2.3-4.7c1.9-1.2,4.2-1.8,6.5-1.7h3.2v-1.5c0.1-1-0.3-2-1-2.8c-0.9-0.7-2-1.1-3.1-1c-1.1,0-2.1,0.3-3,0.9
	c-0.7,0.5-1.2,1.2-1.2,2.1H97c0-1,0.4-2,1-2.8c0.7-0.9,1.7-1.7,2.8-2.1c1.2-0.5,2.6-0.8,3.9-0.8c1.9-0.1,3.8,0.5,5.3,1.7
	c1.3,1.2,2,2.9,2,4.6v9c-0.1,1.5,0.2,2.9,0.7,4.3v0.3L109.2,27.7z M103.7,25.2c1.1,0,2.1-0.3,3-0.8s1.6-1.2,2-2.1v-4h-2.6
	c-4.1,0-6.1,1.2-6.1,3.6c-0.1,0.9,0.3,1.8,1,2.5C101.8,24.9,102.7,25.2,103.7,25.2z"/>
<path class="st3" d="M120.3,8.6l0.1,2.4c1.4-1.8,3.5-2.9,5.8-2.8c4.1,0,6.2,2.3,6.2,7V28h-3.3V15.1c0.1-1.1-0.3-2.2-1-3.1
	c-0.8-0.7-1.9-1.1-2.9-1c-1,0-2,0.3-2.8,0.9c-0.8,0.6-1.5,1.4-1.9,2.3V28h-3.3V8.6H120.3z"/>
</svg>