<?xml version="1.0" encoding="utf-8"?>
<!-- Generator: Adobe Illustrator 23.1.0, SVG Export Plug-In . SVG Version: 6.00 Build 0)  -->
<svg version="1.1" id="Layer_1" xmlns="http://www.w3.org/2000/svg" xmlns:xlink="http://www.w3.org/1999/xlink" x="0px" y="0px"
	 viewBox="0 0 841.9 595.3" style="enable-background:new 0 0 841.9 595.3;" xml:space="preserve">
<style type="text/css">
	.st0{fill:#00AEEF;}
</style>
<g>
	<path class="st0" d="M0,595.3c280.7,0,561.3,0,842,0.1c0-92.7,0-185.3-0.1-278c-12.9,18.8-47.9,64.4-112.2,91
		c-15.8,6.5-69.4,26.8-137.7,15.8c-8.8-1.4-44.6-7.6-85.5-30.1c-53.8-29.5-82.8-68.7-90.2-79.1c-23.9-33.7-33.6-64.5-36.4-74.4
		c-5.5-18.9-14.3-58.2-6.3-106c12.1-72.3,55-118.2,71.8-134.5C297,0.1,148.5,0,0,0C0,198.4,0,396.9,0,595.3z"/>
</g>
</svg>
